<mxfile host="app.diagrams.net" modified="2023-10-23T03:39:31.548Z" agent="Mozilla/5.0 (Windows NT 10.0; Win64; x64) AppleWebKit/537.36 (KHTML, like Gecko) Chrome/118.0.0.0 Safari/537.36" version="22.0.6" etag="MsTf4V5alYuxXNN-BjRu" type="github">
  <diagram name="Trang-1" id="cpfGCwebBLhZB7NjU35e">
    <mxGraphModel>
      <root>
        <mxCell id="0" />
        <mxCell id="1" parent="0" />
      </root>
    </mxGraphModel>
  </diagram>
</mxfile>
